<svg width="20" height="20" viewBox="0 0 20 20" fill="none" xmlns="http://www.w3.org/2000/svg">
<g id="favorite">
<path id="Vector" d="M10.3334 17.2709L9.47923 16.5001C8.01023 15.1512 6.79576 13.9875 5.83581 13.0092C4.87587 12.0309 4.11117 11.1563 3.54173 10.3855C2.97228 9.61464 2.57298 8.91673 2.34381 8.29173C2.11464 7.66673 2.00006 7.03478 2.00006 6.39589C2.00006 5.14374 2.4202 4.09807 3.26048 3.25887C4.10076 2.41966 5.13895 2.00006 6.37506 2.00006C7.16673 2.00006 7.89937 2.18756 8.57298 2.56256C9.24659 2.93756 9.8334 3.47923 10.3334 4.18756C10.9167 3.43756 11.5348 2.88548 12.1876 2.53131C12.8403 2.17714 13.5417 2.00006 14.2917 2.00006C15.5278 2.00006 16.566 2.41966 17.4063 3.25887C18.2466 4.09807 18.6667 5.14374 18.6667 6.39589C18.6667 7.03478 18.5521 7.66673 18.323 8.29173C18.0938 8.91673 17.6945 9.61464 17.1251 10.3855C16.5556 11.1563 15.7909 12.0309 14.831 13.0092C13.871 13.9875 12.6566 15.1512 11.1876 16.5001L10.3334 17.2709ZM10.3334 15.6251C11.7395 14.3335 12.8965 13.2258 13.8046 12.3022C14.7127 11.3785 15.4341 10.5695 15.9688 9.87506C16.5035 9.18062 16.8785 8.56162 17.0938 8.01808C17.3091 7.47453 17.4167 6.9348 17.4167 6.39892C17.4167 5.48024 17.1251 4.72576 16.5417 4.13548C15.9584 3.5452 15.21 3.25006 14.2964 3.25006C13.5808 3.25006 12.9185 3.46881 12.3094 3.90631C11.7004 4.34381 11.2084 4.95839 10.8334 5.75006H9.81256C9.45145 4.97228 8.96638 4.36117 8.35735 3.91673C7.74831 3.47228 7.08599 3.25006 6.37037 3.25006C5.45683 3.25006 4.70839 3.5452 4.12506 4.13548C3.54173 4.72576 3.25006 5.48142 3.25006 6.40248C3.25006 6.93975 3.3577 7.4827 3.57298 8.03131C3.78826 8.57992 4.16326 9.20492 4.69798 9.90631C5.2327 10.6077 5.95839 11.4167 6.87506 12.3334C7.79173 13.2501 8.94451 14.3473 10.3334 15.6251Z" fill="#585858"/>
</g>
</svg>
