<svg width="24" height="24" viewBox="0 0 24 24" fill="none" xmlns="http://www.w3.org/2000/svg">
<path id="Union" fill-rule="evenodd" clip-rule="evenodd" d="M24 17.2458C24 20.5595 21.3137 23.2458 18 23.2458L6 23.2458C2.68629 23.2458 -2.25317e-07 20.5595 0 17.2458L6.99382e-07 6.96008C9.24699e-07 3.64637 2.68629 0.960083 6 0.960083L18 0.960084C21.3137 0.960085 24 3.64638 24 6.96008L24 17.2458ZM19.4286 13.3887C19.4286 15.0456 18.0854 16.3887 16.4286 16.3887L7.00001 16.3887C5.34315 16.3887 4 15.0456 4 13.3887V7.96014C4 6.30328 5.34315 4.96014 7 4.96014L16.4286 4.96014C18.0854 4.96014 19.4286 6.30328 19.4286 7.96014V13.3887ZM9.14285 17.7459C8.31442 17.7459 7.64284 18.4174 7.64284 19.2459C7.64284 20.0743 8.31442 20.7459 9.14285 20.7459H12.1681H14.8571C15.6856 20.7459 16.3571 20.0743 16.3571 19.2459C16.3571 18.4174 15.6856 17.7459 14.8571 17.7459H12.1681H9.14285Z" fill="white"/>
</svg>
